<svg preserveAspectRatio="none" overflow="visible" style="display: block;" width="327.729" height="30.6601" viewBox="0 0 327.729 30.6601" fill="none" xmlns="http://www.w3.org/2000/svg">
<g id="GOOBNE X HONGIK UNIVERSITY" filter="url(#filter0_f_0_34)">
<path id="Vector" d="M311.223 3.69943H315.522L317.655 13.7347H317.93L320.062 3.69943H324.361L319.89 18.0545V26.9599H315.763V18.2871L311.223 3.69943Z" fill="#E2E2E2"/>
<path id="Vector_2" d="M303.022 26.9599V7.02236H299.342V3.69943H310.864V7.02236H307.149V26.9599H303.022Z" fill="#E2E2E2"/>
<path id="Vector_3" d="M293.486 26.9599V3.69943H297.613V26.9599H293.486Z" fill="#E2E2E2"/>
<path id="Vector_4" d="M283.773 10.678C283.773 13.6354 290.893 12.9708 290.893 17.2573V22.5408C290.893 25.6643 289.036 27.2926 285.287 27.2926C281.538 27.2926 279.646 25.6976 279.646 22.5408V18.0881H283.773V22.2417C283.773 23.2718 284.186 23.8699 285.252 23.8699C286.319 23.8699 286.766 23.2718 286.766 22.2417V18.2542C286.766 15.7953 279.646 16.3269 279.646 11.6748V8.11931C279.646 4.99576 281.504 3.36753 285.252 3.36753C289.001 3.36753 290.893 4.96253 290.893 8.11931V11.0435H286.766V8.41837C286.766 7.38827 286.353 6.79014 285.287 6.79014C284.221 6.79014 283.773 7.38827 283.773 8.41837V10.678Z" fill="#E2E2E2"/>
<path id="Vector_5" d="M265.644 26.9599V3.69943H271.456C275.308 3.69943 277.234 5.32767 277.234 8.45121V11.9403C277.234 14.1999 276.237 15.6952 274.208 16.1936V16.4594C275.033 16.5591 275.755 17.4896 275.927 18.5529L277.234 26.9599H272.798L271.147 16.6921H269.771V26.9599H265.644ZM271.422 7.12204H269.771V13.6017H271.422C272.626 13.6017 273.107 13.0036 273.107 11.9735V8.75027C273.107 7.72017 272.626 7.12204 271.422 7.12204Z" fill="#E2E2E2"/>
<path id="Vector_6" d="M255.234 26.9599V3.69943H263.591V7.02236H259.361V13.1365H262.559V16.4594H259.361V23.637H263.591V26.9599H255.234Z" fill="#E2E2E2"/>
<path id="Vector_7" d="M240.724 3.69943H245.023L247.156 23.1717H247.431L249.563 3.69943H253.862L250.423 26.9599H244.163L240.724 3.69943Z" fill="#E2E2E2"/>
<path id="Vector_8" d="M235.213 26.9599V3.69943H239.34V26.9599H235.213Z" fill="#E2E2E2"/>
<path id="Vector_9" d="M219.26 26.9599V3.69943H225.348L228.202 20.2808H228.477L228.34 3.69943H232.467V26.9599H226.414L223.525 10.1791H223.25L223.387 26.9599H219.26Z" fill="#E2E2E2"/>
<path id="Vector_10" d="M204.919 22.5404V3.69943H209.047V22.2413C209.047 23.2714 209.528 23.8696 210.732 23.8696C211.936 23.8696 212.383 23.2714 212.383 22.2413V3.69943H216.51V22.5404C216.51 25.6972 214.549 27.2922 210.697 27.2922C206.845 27.2922 204.919 25.6639 204.919 22.5404Z" fill="#E2E2E2"/>
<path id="Vector_11" d="M182.719 26.9599V3.69943H186.846V13.7347H187.122L189.976 3.69943H194.275L190.423 14.9641L194.619 26.9599H190.32L187.122 16.1272H186.846V26.9599H182.719Z" fill="#E2E2E2"/>
<path id="Vector_12" d="M175.835 26.9599V3.69943H179.962V26.9599H175.835Z" fill="#E2E2E2"/>
<path id="Vector_13" d="M173.081 8.11931V10.3457H168.954V8.41837C168.954 7.38827 168.507 6.79014 167.303 6.79014C166.099 6.79014 165.618 7.38827 165.618 8.41837V22.2417C165.618 23.2718 166.099 23.8699 167.303 23.8699C168.507 23.8699 168.954 23.2718 168.954 22.2417V16.4598H167.268V13.1369H173.081V22.5408C173.081 25.6976 171.12 27.2926 167.268 27.2926C163.416 27.2926 161.49 25.6643 161.49 22.5408V8.11931C161.49 4.99576 163.416 3.36753 167.268 3.36753C171.12 3.36753 173.081 4.96253 173.081 8.11931Z" fill="#E2E2E2"/>
<path id="Vector_14" d="M145.538 26.9599V3.69943H151.626L154.481 20.2808H154.756L154.618 3.69943H158.745V26.9599H152.692L149.803 10.1791H149.528L149.666 26.9599H145.538Z" fill="#E2E2E2"/>
<path id="Vector_15" d="M142.788 8.11931V22.5408C142.788 25.6976 140.828 27.2926 136.976 27.2926C133.124 27.2926 131.198 25.6643 131.198 22.5408V8.11931C131.198 4.99576 133.124 3.36753 136.976 3.36753C140.828 3.36753 142.788 4.96253 142.788 8.11931ZM135.325 8.41837V22.2417C135.325 23.2718 135.806 23.8699 137.01 23.8699C138.214 23.8699 138.661 23.2718 138.661 22.2417V8.41837C138.661 7.38827 138.214 6.79014 137.01 6.79014C135.806 6.79014 135.325 7.38827 135.325 8.41837Z" fill="#E2E2E2"/>
<path id="Vector_16" d="M116.856 26.9599V3.69943H120.983V13.1365H124.319V3.69943H128.446V26.9599H124.319V16.4594H120.983V26.9599H116.856Z" fill="#E2E2E2"/>
<path id="Vector_17" d="M94.1507 3.69943H98.1747L100.204 10.7773H100.479L102.508 3.69943H106.532L102.439 15.3297L106.532 26.9599H102.508L100.479 19.8821H100.204L98.1747 26.9599H94.1507L98.2435 15.3297L94.1507 3.69943Z" fill="#E2E2E2"/>
<path id="Vector_18" d="M76.1824 26.9599V3.69943H84.5398V7.02236H80.3095V13.1365H83.5081V16.4594H80.3095V23.637H84.5398V26.9599H76.1824Z" fill="#E2E2E2"/>
<path id="Vector_19" d="M60.2273 26.9599V3.69943H66.3149L69.1695 20.2808H69.4446L69.307 3.69943H73.4342V26.9599H67.381L64.492 10.1791H64.2169L64.3545 26.9599H60.2273Z" fill="#E2E2E2"/>
<path id="Vector_20" d="M46.3907 26.9599V3.69943H51.6872C55.5392 3.69943 57.4651 5.32767 57.4651 8.45121V11.2092C57.4651 13.203 56.6741 14.1999 55.1264 14.4989V14.7648C56.8117 15.0638 57.6371 16.0275 57.6371 18.0877V22.2081C57.6371 25.3316 55.7111 26.9599 51.8591 26.9599H46.3907ZM51.6528 7.12204H50.5178V13.203H51.6528C52.8565 13.203 53.338 12.6049 53.338 11.5748V8.75027C53.338 7.72017 52.8565 7.12204 51.6528 7.12204ZM51.8247 16.0939H50.5178V23.5373H51.8247C53.0285 23.5373 53.51 22.9391 53.51 21.909V17.7222C53.51 16.6921 53.0285 16.0939 51.8247 16.0939Z" fill="#E2E2E2"/>
<path id="Vector_21" d="M43.6403 8.11931V22.5408C43.6403 25.6976 41.6799 27.2926 37.8279 27.2926C33.976 27.2926 32.05 25.6643 32.05 22.5408V8.11931C32.05 4.99576 33.976 3.36753 37.8279 3.36753C41.6799 3.36753 43.6403 4.96253 43.6403 8.11931ZM36.1771 8.41837V22.2417C36.1771 23.2718 36.6586 23.8699 37.8623 23.8699C39.0661 23.8699 39.5132 23.2718 39.5132 22.2417V8.41837C39.5132 7.38827 39.0661 6.79014 37.8623 6.79014C36.6586 6.79014 36.1771 7.38827 36.1771 8.41837Z" fill="#E2E2E2"/>
<path id="Vector_22" d="M29.2976 8.11931V22.5408C29.2976 25.6976 27.3372 27.2926 23.4852 27.2926C19.6333 27.2926 17.7073 25.6643 17.7073 22.5408V8.11931C17.7073 4.99576 19.6333 3.36753 23.4852 3.36753C27.3372 3.36753 29.2976 4.96253 29.2976 8.11931ZM21.8344 8.41837V22.2417C21.8344 23.2718 22.3159 23.8699 23.5196 23.8699C24.7234 23.8699 25.1705 23.2718 25.1705 22.2417V8.41837C25.1705 7.38827 24.7234 6.79014 23.5196 6.79014C22.3159 6.79014 21.8344 7.38827 21.8344 8.41837Z" fill="#E2E2E2"/>
<path id="Vector_23" d="M14.9579 8.11931V10.3457H10.8308V8.41837C10.8308 7.38827 10.3837 6.79014 9.17991 6.79014C7.97616 6.79014 7.49467 7.38827 7.49467 8.41837V22.2417C7.49467 23.2718 7.97616 23.8699 9.17991 23.8699C10.3837 23.8699 10.8308 23.2718 10.8308 22.2417V16.4598H9.14552V13.1369H14.9579V22.5408C14.9579 25.6976 12.9975 27.2926 9.14552 27.2926C5.29353 27.2926 3.36753 25.6643 3.36753 22.5408V8.11931C3.36753 4.99576 5.29353 3.36753 9.14552 3.36753C12.9975 3.36753 14.9579 4.96253 14.9579 8.11931Z" fill="#E2E2E2"/>
</g>
<defs>
<filter id="filter0_f_0_34" x="9.66538e-08" y="2.19443e-08" width="327.729" height="30.6601" filterUnits="userSpaceOnUse" color-interpolation-filters="sRGB">
<feFlood flood-opacity="0" result="BackgroundImageFix"/>
<feBlend mode="normal" in="SourceGraphic" in2="BackgroundImageFix" result="shape"/>
<feGaussianBlur stdDeviation="1.68377" result="effect1_foregroundBlur_0_34"/>
</filter>
</defs>
</svg>
