<svg preserveAspectRatio="none" overflow="visible" style="display: block;" width="1291.64" height="296.043" viewBox="0 0 1291.64 296.043" fill="none" xmlns="http://www.w3.org/2000/svg">
<g id="Group">
<path id="Vector" d="M881.199 97.8336C879.287 98.066 872.548 99.0923 873.512 91.3274C873.807 88.0985 874.736 84.4774 875.138 82.3087C877.622 68.9186 883.329 60.6261 884.162 48.2284C884.67 40.7685 882.317 33.3521 876.498 28.7774C867.775 21.9178 857.716 22.1502 849.074 28.8113C847.583 29.9586 847.312 30.6025 845.884 31.8175C845.695 31.9773 845.473 32.137 845.236 32.2823C842.684 35.061 840.003 37.6945 837.335 40.3715C834.905 42.8113 832.635 45.3867 830.393 47.996C829.662 48.9836 828.931 49.9711 828.21 50.9635C826.787 52.9193 825.509 55.2332 824.027 57.3148C823.592 58.5106 823.079 59.5998 822.522 60.4857C813.89 74.0645 816.142 72.6316 802.955 85.8861C798.259 90.5964 794.164 95.6697 790.223 101.004C784.714 108.45 780.991 119.318 773.052 125.059C770.767 126.705 768.153 127.823 765.379 127.76C761.749 127.683 759.12 125.321 758.462 121.908C757.803 118.49 757.072 115.213 755.876 111.926C752.681 103.144 742.206 91.6808 733.952 87.7693C725.693 83.8529 715.653 83.6012 706.78 81.8294C696.289 80.077 697.223 73.1593 700.123 68.0763C704.896 59.6966 717.434 55.3494 727.184 54.9912C734.813 54.7056 755.015 53.0645 762.155 50.4794C772.704 46.6599 783.799 42.8259 790.17 33.2795C793.515 28.2643 795.534 22.7214 794.425 16.4136C791.966 7.39009 787.754 1.28081 778.489 0.162548C767.795 -0.776597 757.421 2.41359 748.315 8.18401L733.337 17.6868C726.632 21.9372 719.681 24.7933 712.09 27.1218C691.574 33.4151 672.646 43.0098 660.5 61.2844C653.573 71.7118 652.45 86.0507 660.379 95.8779C663.487 99.7264 667.805 102.103 672.447 103.594C683.959 107.293 696.73 104.34 709.674 113.717C719.289 120.688 716.437 132.916 709.699 141.204C705.516 146.33 700.36 150.276 694.58 153.548C677.24 163.361 662.896 156.288 644.873 162.717C634.857 166.29 626.454 172.917 621.167 182.144C618.815 186.263 617.348 190.552 617.038 195.2C616.394 204.867 622.469 212.709 631.929 214.583C640.202 216.224 648.824 215.038 655.974 210.4L668.943 201.996C674.205 198.588 679.922 196.444 685.775 194.038C696.425 189.652 706.838 185.547 717.149 180.401C723.389 177.283 729.227 173.87 734.368 169.257C745.556 159.754 749.661 150.251 754.923 151.772C758.984 152.948 751.074 169.31 749.133 172.196L742.84 181.529C739.766 186.084 737.946 191.187 738.309 196.696C738.841 204.891 745.735 210.608 753.921 210.105C759.038 209.79 763.903 207.67 767.524 204.354C771.145 201.038 773.986 197.339 775.763 192.687L784.491 169.804C786.892 163.506 789.468 157.59 792.784 151.738C795.737 146.529 799.857 142.041 805.298 139.461C811.562 136.498 818.121 134.363 824.816 133.032C828.767 132.253 832 134.717 832.33 138.517C832.586 141.557 832.354 144.68 831.541 147.695L826.675 165.747C825.354 170.642 824.763 175.313 825.344 180.246C826.487 189.913 834.716 196.342 844.529 194.837C852.1 193.68 858.384 188.723 862.039 181.868C865.693 175.008 866.483 167.514 866.26 159.745C866.003 150.697 866.284 141.993 867.33 133.1C867.872 128.511 870.162 121.588 873.57 116.878C876.774 112.448 883.682 113.61 885.386 118.809C886.892 123.413 888.02 128.84 888.262 130.617C888.79 134.523 888.993 142.656 888.828 145.958C888.993 160.495 888.277 173.633 897.295 185.808C911 204.31 935.703 201.793 951.988 189.124C959.961 182.928 968.656 174.911 975.099 167.243L975.089 167.234C979.896 161.507 984.35 156.007 988.673 149.85C997.987 136.566 1006.74 123.234 1014.68 109.065L1026.94 87.1835C1031.04 79.8543 1034.47 72.4816 1037.48 64.6489C1042.51 51.5589 1041.24 35.3514 1029.44 26.3618C1022.09 20.7608 1010.99 20.3348 1004.56 28.0755C1001.58 31.6626 999.938 35.8549 998.849 40.4006C995.755 53.292 992.72 65.7962 988.45 78.4069C981.363 99.3198 962.953 134.228 948.232 150.552C944.562 154.623 940.22 157.808 935.151 159.057C929.788 160.388 924.952 158.031 922.613 153.219C917.908 143.566 921.272 129.455 924.206 119.478C928.379 105.318 943.163 77.2112 952.806 66.1254C958.514 59.5756 964.294 50.7747 964.696 41.9158C964.986 35.5548 962.135 29.702 956.481 26.7103C946.402 21.3708 934.27 24.4641 927.609 33.7249C923.891 38.895 921.35 44.4766 918.891 50.4165C914.476 61.0908 913.474 66.1351 907.742 77.7679C905.138 83.2381 903.39 87.1545 896.119 92.6054C893.81 94.3385 887.71 96.7928 881.194 97.853M851.616 80.7789C848.707 89.1054 847.976 99.1213 839.77 105.11C836.885 107.738 825.015 110.067 823.112 108.019C821.191 106.397 821.287 103.139 823.359 98.8986C824.991 95.6746 826.835 93.8979 828.796 90.9837C828.897 90.8288 829.033 90.7126 829.173 90.6061C831.415 87.5611 834.46 85.2568 836.604 82.1586C838.57 79.317 839.683 76.393 842.036 74.0742C842.123 73.8806 842.239 73.7063 842.399 73.5562C842.854 73.1351 843.304 72.7381 843.749 72.3654C845.478 70.9082 848.721 68.5894 850.59 69.911C852.923 71.5521 852.453 78.3924 851.621 80.7789H851.616Z" fill="#FF0000"/>
<path id="Vector_2" d="M1288.8 112.923C1285.87 107.617 1280.66 103.764 1274.9 102.151C1270.86 101.019 1266.86 101.082 1262.76 100.82C1258.32 100.539 1254.78 97.6349 1254.58 93.0457C1254.37 87.9917 1255.01 82.8651 1256.57 77.9564L1262.02 60.771C1264.68 52.3913 1266.1 40.7295 1261.08 33.0275C1257.32 27.2668 1250.7 23.4376 1243.67 23.5828C1236.51 23.728 1230.09 27.0683 1225.07 31.8415L1219.33 37.3021C1204.76 51.1375 1199.62 68.1099 1188.75 81.955C1185.63 85.9198 1182.24 89.3036 1178.84 93.0021C1174.23 98.0415 1170.14 103.115 1166.53 108.929C1163.97 113.058 1161.59 117.12 1158.46 120.775C1154.4 125.514 1148.97 128.646 1142.85 129.624C1140.6 129.982 1137.99 129.445 1136.47 127.871C1132.35 123.611 1136.05 116.737 1137.61 112.86C1140.8 104.94 1143.3 97.0298 1145.98 88.9212L1153.02 67.6597C1156.45 57.2807 1161.56 47.9618 1168.6 39.6064C1173.07 34.32 1176.87 28.7578 1179.66 22.4742C1181.52 18.2868 1182.36 13.8622 1181.55 9.5053C1179.76 -0.0846274 1169.46 -1.29487 1161.49 1.15466C1149.24 4.91608 1140.21 16.6651 1135.08 27.9542C1132.39 33.8698 1130.08 39.5434 1128.13 45.7737L1118.51 76.5283C1116.35 83.4315 1114.55 90.0636 1111.94 96.7587C1110.68 99.9585 1109.07 102.897 1106.58 105.153C1104.2 107.307 1100.98 107.462 1098.45 105.429C1096.27 103.672 1094.61 101.125 1093.8 98.3223C1092.08 92.2856 1090.71 86.3458 1089.49 80.1493C1088.02 72.6556 1090.02 67.2918 1088.59 59.9432C1087.88 56.2592 1086.15 52.827 1083.01 50.726C1076.99 46.6935 1069.03 50.0386 1064.27 54.8796C1060.65 58.5539 1057.46 62.7316 1055.59 67.5822L1050.27 81.3789C1048.37 86.3312 1045.96 90.6155 1042.79 94.8997C1034.69 105.821 1027.1 116.781 1020.6 128.801C1015.12 138.919 1009.37 148.489 1002.26 157.459C1000.35 159.88 998.416 161.942 996.378 164.242L979.183 183.659C973.62 189.942 969.757 197.325 967.148 205.24C964.161 214.307 964.708 223.461 968.958 231.937C974.84 243.672 975.111 250.778 969.423 262.556C966.504 268.598 965.381 275.404 967.579 281.886C970.851 291.534 980.47 297.126 990.481 295.867C998.329 294.889 1004.99 290.14 1007.89 282.753C1010.05 277.244 1009.9 271.173 1007.88 265.621C1005.84 259.971 1005.46 254.375 1006.41 248.353C1007.37 242.346 1008.27 236.575 1008.81 230.514C1009.38 224.144 1011.02 218.247 1013.65 212.482L1020.13 198.206L1050.01 138.933C1051.42 136.125 1053.05 133.826 1054.83 131.362C1056.87 128.544 1059.84 126.55 1063.41 126.318C1068.14 126.008 1070.31 131.817 1070.61 135.665C1071.72 149.878 1066.35 163.39 1073.63 178.832C1074.72 181.151 1076.2 183.407 1078.03 185.203C1082.9 189.986 1090.14 191.143 1096.43 188.645C1104.25 185.537 1107.83 180.338 1112.53 174.112L1116.62 168.681C1118.9 165.66 1130.8 146.964 1134.72 146.635C1136.47 146.49 1138.5 147.332 1138.94 149.186C1140.77 156.97 1120.97 180.672 1118.4 192.261V192.227C1117.18 197.702 1118.32 203.444 1122.24 207.486C1124.49 209.819 1127.69 210.981 1130.96 211.296C1142.64 212.438 1151.06 204.499 1155.21 194.197L1167.46 163.791C1170.93 155.174 1175.28 146.34 1183.25 141.324C1187.79 138.468 1192.78 136.982 1197.83 135.293C1200.83 134.286 1203.93 133.284 1206.93 133.197C1209.94 133.109 1212.25 135.08 1212.65 137.989C1212.95 140.201 1212.93 142.588 1212.42 144.839L1208 164.246C1205.94 173.352 1204.58 182.264 1208.46 191.056C1210.77 196.284 1215.22 199.847 1221.09 200.636C1227.8 201.536 1234.82 198.971 1239.39 193.694C1243.97 188.398 1246.55 181.359 1246.55 174.287L1246.52 151.708C1246.51 149.685 1247.08 147.555 1248.09 145.948C1250.08 142.82 1253.49 142.394 1256.63 143.992C1262.02 146.737 1267.83 147.932 1273.79 146.703C1279.99 145.425 1285.13 141.949 1288.34 136.401C1292.46 129.295 1292.86 120.291 1288.81 112.942L1288.8 112.923ZM1231.5 76.5622C1228.8 84.6998 1226.81 94.7593 1221.94 101.861L1221.95 101.871C1219.61 105.288 1208.34 112.622 1203.6 108.638C1201.55 106.905 1201.99 101.241 1203.01 98.7096C1207.02 88.805 1215.68 79.6749 1223.63 72.5152C1225.12 71.1694 1226.93 70.1189 1228.73 69.6154C1230.32 69.1701 1231.75 70.2496 1231.93 71.7939C1232.11 73.3381 1232.01 75.0228 1231.5 76.567V76.5622Z" fill="#FF0000"/>
<path id="Vector_3" d="M70.1263 207.98C56.5038 207.98 50.1574 203.816 39.6428 196.923C38.6262 196.255 37.5757 195.567 36.4768 194.856C35.3537 194.13 34.2016 193.389 33.0252 192.639C21.6199 185.348 8.68974 177.085 3.85363 164.251C-4.64708 141.702 2.32873 120.213 11.1296 100.351C18.9042 83.054 30.5612 67.0063 38.9796 56.5885C71.9997 18.5483 85.1429 12.1098 114.252 3.44454C119.727 2.06487 125.27 1.36293 130.735 1.36293C146.042 1.36293 159.568 6.71219 168.809 16.4231C177.479 25.5338 181.686 37.8831 180.979 52.1397C180.752 56.7676 179.604 63.0802 178.389 69.7656C175.819 83.9399 172.9 100.002 177.019 108.522C178.636 111.863 181.846 113.775 185.825 113.775C189.083 113.775 192.486 112.487 195.154 110.25C201.098 105.259 202.425 97.8286 204.259 87.5416L204.298 87.3286C206.849 73.0236 212.165 55.1266 223.904 45.4156C227.264 42.6369 231.277 41.1072 235.203 41.1072C241.757 41.1072 246.352 45.2026 247.484 52.0622C250.665 71.2711 237.899 91.1626 232.264 103.933L231.64 105.347C228.198 113.102 224.291 121.898 225.037 130.447C225.589 136.784 226.847 143.261 231.993 143.261C234.704 143.261 238.204 141.315 243.345 136.948C255.501 126.608 273.224 93.3943 282.707 74.5146C285.37 69.2186 289.218 59.4495 293.289 49.1093C298.813 35.0802 298.823 28.7918 302.734 22.7551C307.498 15.4114 314.599 11.1949 322.204 11.1949C328.546 11.1949 334.36 14.0559 338.151 19.0373C342.503 24.7544 343.606 32.5919 341.254 41.1072C336.727 57.4986 326.726 70.8451 312.382 91.1045C303.857 103.149 295.802 114.52 290.85 123.544C276.438 149.801 262.777 171.702 242.943 193.234C234.22 202.016 224.044 207.05 215.031 207.05C212.228 207.05 209.497 206.571 206.917 205.632C206.898 205.627 206.878 205.617 206.859 205.612C199.738 203.361 195.066 198.448 192.975 191.017C190.835 184.274 191.692 175.56 192.525 167.132C194.089 151.278 195.705 134.881 177.455 131.217C177.412 131.207 177.363 131.202 177.32 131.197C176.443 131.11 175.567 131.067 174.72 131.067C160.299 131.067 153.124 143.537 146.797 154.54C145.108 157.479 143.51 160.258 141.821 162.746C130.004 180.178 96.2384 206.813 73.8006 207.893C72.5274 207.955 71.293 207.985 70.1214 207.985L70.1263 207.98ZM46.3136 120.644C44.4644 130.902 46.304 139.437 51.7936 146.006C58.0917 153.548 69.0177 157.876 81.7639 157.876C90.9859 157.876 100.242 155.509 107.16 151.374C107.179 151.36 107.203 151.35 107.223 151.336C122.52 141.044 132.473 122.077 137.043 111.688C145.205 94.5949 152.723 70.6999 149.276 55.0297C147.388 46.4371 138.418 41.0975 125.86 41.0975C114.479 41.0975 102.057 45.6141 91.7944 53.4855C67.5509 72.0747 49.2811 99.0582 46.3136 120.644Z" fill="#FF0000"/>
<path id="Vector_4" d="M278.433 294.657C269.433 294.657 261.494 288.954 258.677 280.468C257.152 275.884 257.157 270.922 258.677 265.718C258.943 264.691 259.277 263.733 259.717 262.736C260.013 262 260.279 261.39 260.545 260.823C266.475 248.3 264.404 241.377 260.637 228.805L260.134 227.121C257.166 217.158 262.83 196.143 274.313 184.99C274.347 184.956 274.376 184.922 274.41 184.888C276.443 182.468 276.554 182.313 279.415 178.334C280.33 177.06 281.531 175.39 283.172 173.12C288.836 165.282 292.544 158.757 296.131 152.444C296.625 151.573 297.119 150.706 297.617 149.835C298.987 147.443 299.868 145.691 300.987 143.474C302.691 140.09 305.029 135.452 310.639 125.557C310.649 125.538 310.659 125.519 310.673 125.499C316.226 114.481 322.219 106.586 328.561 98.2206C333.363 91.8886 338.33 85.3388 343.209 77.2108C343.253 77.1382 343.297 77.0608 343.335 76.9833C346.453 71.0144 348.307 66.6479 349.943 62.7945C352.306 57.2274 354.169 52.8318 358.744 46.0884C366.431 34.7508 385.815 25.4853 418.002 17.7688C421.134 17.0184 424.32 16.1374 427.403 15.2902C435.173 13.1457 442.512 11.1222 448.641 11.1222C450.47 11.1222 452.136 11.3109 453.583 11.6837C465.652 14.7916 467.259 25.2045 467.143 31.1347C467.041 36.2757 465.226 45.3913 454.198 48.6347C453.114 48.9542 451.903 49.1091 450.495 49.1091C447.401 49.1091 444.008 48.3442 441.016 47.6665C439.06 47.2211 437.211 46.8048 435.686 46.6596C433.706 46.4708 431.634 46.374 429.528 46.374C417.087 46.374 403.266 49.6755 391.619 55.4362C388.075 57.1887 383.777 61.2551 382.15 66.401C381.148 69.5718 381.385 72.6555 382.833 75.3132C384.358 78.1113 387.189 79.5297 391.241 79.5297C395.501 79.5297 400.536 78.0048 404.98 76.659C407.991 75.7489 410.833 74.8872 412.677 74.7565C413.268 74.7129 413.853 74.6935 414.42 74.6935C424.508 74.6935 428.894 81.2434 429.64 87.3768C430.54 94.7835 425.936 100.094 417.015 101.943C410.295 103.337 400.642 104.044 388.322 104.044C385.606 104.044 382.697 104.01 379.676 103.943C379.381 103.928 379.052 103.923 378.727 103.923C369.52 103.923 360.695 109.786 356.929 113.247C352.489 117.328 349.812 119.792 345.393 127.944C340.895 135.733 339.777 142.409 342.261 146.717C343.577 148.997 346.569 151.713 353.342 151.713C356.958 151.713 361.31 150.943 366.277 149.423C373.78 147.129 379.342 142.593 384.721 138.207C390.656 133.366 396.261 128.796 404.215 127.16C405.682 126.913 407.183 126.782 408.63 126.782C416.724 126.782 421.783 130.757 424.499 132.891C424.789 133.119 425.055 133.327 425.288 133.501C425.907 133.966 426.483 134.494 427.04 134.997C428.628 136.44 430.269 137.931 432.815 137.979H432.936C437.274 137.979 439.38 133.671 441.815 128.68C442.439 127.402 443.088 126.075 443.814 124.71C446.956 118.79 450.383 111.238 454.019 103.236C464.306 80.5753 477.115 52.3719 491.662 43.4452C496.789 40.2986 503.305 38.4203 509.099 38.4203C514.056 38.4203 518.074 39.7758 520.408 42.235C522.179 44.1036 522.998 46.6015 522.838 49.661C522.591 54.4584 521.235 59.1057 519.928 63.6029C517.493 71.9729 514.976 80.6286 519.662 90.1846C521.933 94.8126 524.769 97.1556 528.095 97.1556C534.427 97.1556 540.207 88.2143 542.623 82.928C544.535 78.7357 546.447 74.2821 548.471 69.5621C558.283 46.679 569.408 20.746 587.789 7.31232C591.72 4.43679 599.823 1.38699 607.104 1.38699C610.183 1.38699 614.395 1.96307 616.956 4.71757C620.485 8.51288 621.685 16.2681 620.548 20.8476C618.495 29.1111 612.168 34.6347 605.473 40.4825C602.689 42.9078 599.814 45.4203 597.219 48.1748C588.781 57.116 585.736 61.7295 579.187 75.5456C572.753 86.0649 567.128 97.6784 562.471 107.66C559.881 113.218 555.756 132.282 555.747 144.437C555.655 145.72 555.577 146.959 555.5 148.165C554.551 162.949 553.975 171.876 537.448 186.021C534.108 188.587 530.695 189.894 527.306 189.894C521.473 189.894 515.634 185.885 511.694 179.171C506.868 170.951 507.744 146.069 508.891 137.999C508.891 137.979 508.891 137.965 508.896 137.95C509.38 133.322 510.455 117.681 504.065 110.589C502.022 108.319 499.427 107.172 496.363 107.172C496.3 107.172 496.242 107.172 496.179 107.186C484.604 108.74 480.964 119.163 478.035 127.537C477.144 130.093 476.302 132.504 475.329 134.387C470.168 144.398 467.404 156.356 464.732 167.921C461.154 183.397 457.456 199.401 447.987 210.569C443.519 215.841 432.293 220.13 422.969 220.13C418.017 220.13 414.091 218.93 411.612 216.654C406.447 211.91 406.389 203.744 408.62 197.751C410.107 193.757 413.916 189.869 417.605 186.113C420.544 183.116 423.322 180.284 424.702 177.559C424.881 177.201 425.094 176.794 425.331 176.334C430.051 167.18 434.103 158.079 431.813 153.519C431.116 152.125 429.862 151.244 428.187 150.968C427.873 150.914 427.553 150.89 427.239 150.89C423.163 150.89 420.04 155.082 416.429 159.938C414.076 163.099 411.409 166.681 408.281 169.252C397.975 177.728 384.135 182.134 374.617 184.709C370.169 185.914 365.715 186.476 360.603 186.476C357.611 186.476 354.711 186.297 351.637 186.108C348.472 185.914 345.194 185.711 341.714 185.711C341.239 185.711 340.765 185.711 340.285 185.721C316.565 186.118 305.45 192.116 301.921 206.421C300.88 210.632 299.873 212.995 299.06 214.892C297.922 217.555 297.104 219.477 297.196 223.998C297.225 225.276 297.399 226.559 297.588 227.915C297.917 230.282 298.29 232.964 297.942 236.415C297.535 239.3 297.094 242.166 296.678 244.848C295.618 251.688 296.141 257.943 298.28 263.975C300.357 269.808 300.362 275.971 298.3 281.334C295.531 288.557 289.131 293.471 281.182 294.483C280.272 294.599 279.348 294.657 278.433 294.657Z" fill="#FF0000"/>
</g>
</svg>
